<svg width="24" height="24" viewBox="0 0 24 24" fill="none" xmlns="http://www.w3.org/2000/svg">
<path d="M6.005 9.05662L9.23822 8.37873L10.902 5.613C11.1304 5.23329 11.5483 5 12 5C12.4517 5 12.8696 5.23329 13.098 5.613L14.7618 8.37873L17.995 9.05662C18.4388 9.14967 18.7982 9.466 18.938 9.88679C19.0779 10.3076 18.9772 10.7691 18.6737 11.098L16.4735 13.4821L16.8057 16.6332C16.852 17.0721 16.6555 17.5018 16.2897 17.7618C15.9239 18.0218 15.4439 18.0728 15.0291 17.8959L12 16.6034L8.97089 17.8959C8.55615 18.0728 8.07614 18.0218 7.71034 17.7618C7.34454 17.5018 7.14804 17.0721 7.1943 16.6332L7.5265 13.4821L5.32634 11.098C5.02281 10.7691 4.92207 10.3076 5.06196 9.88679C5.20185 9.466 5.56119 9.14967 6.005 9.05662ZM9.01823 13.6394L8.73062 16.3675L11.4113 15.2238C11.7874 15.0633 12.2126 15.0633 12.5887 15.2238L15.2694 16.3675L14.9818 13.6394C14.9365 13.2101 15.0784 12.7821 15.3712 12.4648L17.2468 10.4324L14.454 9.8468C14.0457 9.7612 13.6915 9.50942 13.4764 9.15195L12 6.69763L10.5236 9.15195C10.3085 9.50942 9.95433 9.7612 9.54603 9.8468L6.75317 10.4324L8.62883 12.4648C8.9216 12.7821 9.06349 13.2101 9.01823 13.6394Z" fill="black" fill-opacity="0.8"/>
<path d="M12 22C17.5228 22 22 17.5228 22 12C22 6.47715 17.5228 2 12 2C6.47715 2 2 6.47715 2 12C2 17.5228 6.47715 22 12 22ZM20.5 12C20.5 16.6944 16.6944 20.5 12 20.5C7.30558 20.5 3.5 16.6944 3.5 12C3.5 7.30558 7.30558 3.5 12 3.5C16.6944 3.5 20.5 7.30558 20.5 12Z" fill="black" fill-opacity="0.8"/>
</svg>
