<svg width="24" height="24" viewBox="0 0 24 24" fill="none" xmlns="http://www.w3.org/2000/svg">
<path d="M19.2305 4.77185C19.5898 5.13118 19.5898 5.71379 19.2305 6.07312L13.3023 12.001L19.2276 17.9263C19.5869 18.2856 19.5869 18.8682 19.2276 19.2276C18.8682 19.5869 18.2856 19.5869 17.9263 19.2276L12.001 13.3023L6.07312 19.2305C5.74143 19.5622 5.21949 19.5877 4.85853 19.307L4.77185 19.2305C4.41251 18.8712 4.41251 18.2886 4.77185 17.9292L10.6997 12.001L4.7695 6.07078C4.41017 5.71144 4.41017 5.12884 4.7695 4.7695C5.12884 4.41017 5.71144 4.41017 6.07078 4.7695L12.001 10.6997L17.9292 4.77185C18.2609 4.44015 18.7828 4.41463 19.1438 4.6953L19.2305 4.77185Z" fill="black" fill-opacity="0.8"/>
</svg>
