<svg width="18" height="18" viewBox="0 0 18 18" fill="none" xmlns="http://www.w3.org/2000/svg">
<path d="M12.2455 16.0108C12.6898 16.2048 13.2041 16.1489 13.5961 15.8639C13.988 15.5789 14.1985 15.1079 14.149 14.6268L13.8101 11.3385C13.7992 11.233 13.8336 11.1277 13.9047 11.0489L16.1504 8.55937C16.4756 8.19883 16.5835 7.69292 16.4336 7.23168C16.2837 6.77043 15.8987 6.42368 15.4232 6.32168L12.1201 5.61316C12.0175 5.59114 11.9288 5.52709 11.8755 5.43657L10.1764 2.54694C9.93172 2.13072 9.48399 1.875 9 1.875C8.51601 1.875 8.06828 2.13072 7.82355 2.54694L6.12447 5.43657C6.07125 5.52708 5.98252 5.59114 5.87986 5.61316L2.57678 6.32168C2.10127 6.42368 1.71626 6.77043 1.56638 7.23168C1.4165 7.69292 1.52444 8.19883 1.84965 8.55937L4.09531 11.0489C4.16639 11.1277 4.20076 11.233 4.18988 11.3385L3.85104 14.6268C3.80147 15.1079 4.01201 15.5789 4.40393 15.8639C4.79586 16.1489 5.31016 16.2048 5.75453 16.0108L8.84998 14.6596C8.94563 14.6179 9.05437 14.6179 9.15002 14.6596L12.2455 16.0108ZM2.68501 7.80584C2.62888 7.74361 2.61093 7.65746 2.63631 7.57935C2.66179 7.50093 2.72812 7.43981 2.81273 7.42166L6.11581 6.71314C6.52646 6.62505 6.88137 6.36884 7.09424 6.0068L8.79333 3.11717C8.83536 3.04568 8.91356 3 9 3C9.08644 3 9.16464 3.04568 9.20667 3.11717L10.9058 6.0068C11.1186 6.36884 11.4735 6.62505 11.8842 6.71314L15.1873 7.42166C15.2719 7.43981 15.3382 7.50093 15.3637 7.57935C15.3891 7.65746 15.3711 7.74362 15.315 7.80584L13.0693 10.2954C12.785 10.6106 12.6475 11.0316 12.691 11.4539L13.0299 14.7421C13.0383 14.8233 13.0029 14.9042 12.9345 14.954C12.8656 15.004 12.7744 15.0142 12.6955 14.9798L9.60009 13.6286C9.21746 13.4616 8.78254 13.4616 8.39991 13.6286L5.30447 14.9798C5.22563 15.0142 5.13438 15.004 5.06552 14.954C4.99706 14.9042 4.96175 14.8233 4.97011 14.7421L5.30895 11.4539C5.35247 11.0316 5.21501 10.6106 4.93067 10.2954L2.68501 7.80584Z" fill="white"/>
</svg>
