<svg width="14" height="14" viewBox="0 0 14 14" fill="none" xmlns="http://www.w3.org/2000/svg">
<path d="M2.50429 4.54593C2.60751 4.44269 2.74569 4.38191 2.89154 4.37559C3.0374 4.36928 3.18032 4.41788 3.29208 4.5118L3.32912 4.54593L7.00004 8.21626L10.671 4.54563C10.7742 4.4424 10.9124 4.38162 11.0582 4.3753C11.2041 4.36898 11.347 4.41759 11.4587 4.51151L11.4958 4.54563C11.599 4.64886 11.6598 4.78704 11.6661 4.93289C11.6724 5.07874 11.6238 5.22166 11.5299 5.33342L11.4958 5.37047L7.41246 9.4538C7.30923 9.55704 7.17105 9.61781 7.0252 9.62413C6.87935 9.63045 6.73643 9.58185 6.62466 9.48793L6.58762 9.4538L2.50429 5.37047C2.39493 5.26108 2.3335 5.11273 2.3335 4.95805C2.3335 4.80337 2.39493 4.65532 2.50429 4.54593Z" fill="black"/>
</svg>
