<svg width="24" height="24" viewBox="0 0 24 24" fill="none" xmlns="http://www.w3.org/2000/svg">
<path d="M11.9441 8.77107C12.2214 8.71241 12.4199 8.46758 12.4199 8.18406V4.7043C12.4199 4.35961 12.8268 4.17632 13.0849 4.4047L20.5646 11.0213C20.7445 11.1805 20.7445 11.4613 20.5646 11.6205L13.0849 18.2371C12.8268 18.4654 12.4199 18.2822 12.4199 17.9375V13.7203C12.4199 13.3445 12.0783 13.0612 11.7089 13.1307L10.287 13.3983C7.24642 13.9706 5.01172 15.6214 3.30907 17.7868C3.40766 15.2775 4.29487 13.4158 5.50542 12.0558C6.97713 10.4024 9.02199 9.38905 10.9924 8.97235L11.9441 8.77107ZM10.6199 17.9375C10.6199 19.8332 12.8576 20.8414 14.2776 19.5853L21.7572 12.9687C22.747 12.0931 22.747 10.5486 21.7572 9.67307L14.2776 3.0565C12.8576 1.80041 10.6199 2.80852 10.6199 4.7043V7.2113C6.07126 8.17327 0.969687 11.9147 1.5445 19.397C1.6446 20.7 3.3469 20.8767 4.07589 19.7921C5.31684 17.9457 6.83906 16.4999 8.81991 15.6936C9.38168 15.4649 9.98033 15.2876 10.6199 15.1673V17.9375Z" fill="white"/>
</svg>
