<svg width="20" height="20" viewBox="0 0 20 20" fill="none" xmlns="http://www.w3.org/2000/svg">
<g clip-path="url(#clip0_101_1073)">
<path d="M8.38306 4.37624C7.64912 3.68707 6.55466 3.2853 5.5712 3.10981C5.06729 3.01989 4.56025 2.98333 4.09882 3.00706C3.64966 3.03016 3.18918 3.11296 2.81263 3.30393C2.60747 3.40797 2.45855 3.60513 2.4082 3.83935C2.28031 4.4343 2.31326 5.24267 2.53314 6.06711C2.75667 6.90527 3.18789 7.81629 3.91385 8.59501C4.76045 9.50315 5.95971 9.90996 7.01144 10.0792C7.59703 10.1735 8.17288 10.1999 8.67827 10.1852C8.19224 13.1973 8.97289 16.0164 9.26078 17.0559C9.30249 17.2065 9.33385 17.3198 9.34952 17.3909C9.44289 17.8144 9.84395 18.0778 10.2453 17.9793C10.6467 17.8808 10.8964 17.4577 10.803 17.0342C10.7777 16.9192 10.7353 16.7614 10.6829 16.5664C10.3771 15.4276 9.7304 13.0199 10.1452 10.4636C10.7375 10.5612 11.4873 10.6147 12.2622 10.5533C13.3231 10.4692 14.5483 10.1601 15.4581 9.32273C16.2382 8.60471 16.734 7.73105 17.0175 6.91333C17.2964 6.10899 17.3877 5.30563 17.3032 4.70212C17.2699 4.46453 17.1357 4.25596 16.9386 4.1357C16.577 3.91498 16.1238 3.79536 15.6777 3.73617C15.2193 3.67537 14.7111 3.67101 14.2021 3.72011C13.2089 3.81593 12.0885 4.12843 11.3069 4.75652C10.8408 5.13106 10.2969 5.67997 9.85116 6.3856C9.44292 5.52028 8.87234 4.83568 8.38306 4.37624ZM3.96966 5.64059C3.86527 5.24919 3.82629 4.89573 3.82583 4.61622C3.9251 4.59942 4.04028 4.5865 4.17148 4.57975C4.51146 4.56226 4.90995 4.58873 5.32235 4.66232C6.17152 4.81385 6.95278 5.141 7.39096 5.55245C8.08657 6.20564 8.84014 7.2861 8.89803 8.59899C8.42979 8.62966 7.83996 8.61981 7.23647 8.52268C6.32476 8.37594 5.49806 8.049 4.97775 7.49087C4.45353 6.92854 4.13562 6.26288 3.96966 5.64059ZM15.8335 5.36262C15.8128 5.64128 15.7484 5.99057 15.616 6.37243C15.4056 6.97954 15.0405 7.61768 14.4771 8.13617C13.918 8.65079 13.07 8.91024 12.1504 8.98317C11.5416 9.03144 10.9528 8.99378 10.4881 8.92551C10.6408 7.62111 11.4703 6.60446 12.2111 6.00916C12.6777 5.63418 13.4804 5.37086 14.338 5.28813C14.7545 5.24795 15.1538 5.25363 15.4915 5.29843C15.6218 5.31572 15.7357 5.33788 15.8335 5.36262Z" fill="black"/>
</g>
<defs>
<clipPath id="clip0_101_1073">
<rect width="20" height="20" fill="white"/>
</clipPath>
</defs>
</svg>
