<svg width="20" height="20" viewBox="0 0 20 20" fill="none" xmlns="http://www.w3.org/2000/svg">
<g clip-path="url(#clip0_101_1079)">
<path d="M7.16634 10.2918C7.16634 9.94667 7.44616 9.66685 7.79134 9.66685H13.208C13.5532 9.66685 13.833 9.94667 13.833 10.2918C13.833 10.637 13.5532 10.9168 13.208 10.9168H7.79134C7.44616 10.9168 7.16634 10.637 7.16634 10.2918Z" fill="black"/>
<path d="M7.79134 13.0002C7.44616 13.0002 7.16634 13.28 7.16634 13.6252C7.16634 13.9704 7.44616 14.2502 7.79134 14.2502H13.208C13.5532 14.2502 13.833 13.9704 13.833 13.6252C13.833 13.28 13.5532 13.0002 13.208 13.0002H7.79134Z" fill="black"/>
<path d="M3.83301 15.5002V5.08352C3.83301 3.93292 4.76575 3.00018 5.91634 3.00018H13.833C14.2932 3.00018 14.6663 3.37328 14.6663 3.83352V5.91685H16.333C16.7932 5.91685 17.1663 6.28995 17.1663 6.75018V17.1669C17.1663 17.6271 16.7932 18.0002 16.333 18.0002H6.33301C4.9523 18.0002 3.83301 16.8809 3.83301 15.5002ZM5.91634 4.25018C5.4561 4.25018 5.08301 4.62328 5.08301 5.08352C5.08301 5.54375 5.4561 5.91685 5.91634 5.91685H13.4163V4.45018C13.4163 4.33973 13.3268 4.25018 13.2163 4.25018H5.91634ZM5.91634 7.16685C5.62005 7.16685 5.3382 7.105 5.08301 6.9935V15.5002C5.08301 16.1905 5.64265 16.7502 6.33301 16.7502H15.7163C15.8268 16.7502 15.9163 16.6606 15.9163 16.5502V7.36685C15.9163 7.25639 15.8268 7.16685 15.7163 7.16685H5.91634Z" fill="black"/>
</g>
<defs>
<clipPath id="clip0_101_1079">
<rect width="20" height="20" fill="white"/>
</clipPath>
</defs>
</svg>
