<svg width="20" height="20" viewBox="0 0 20 20" fill="none" xmlns="http://www.w3.org/2000/svg">
<g clip-path="url(#clip0_101_1084)">
<path d="M14.6275 3.36352C15.8703 2.94418 17.0557 4.12957 16.6364 5.37246L15.5407 8.61997C15.5384 8.62689 15.5396 8.63452 15.544 8.64038L17.5983 11.39C18.3858 12.4441 17.6206 13.9434 16.3049 13.924L12.9522 13.8747C12.9438 13.8745 12.9361 13.8791 12.9322 13.8866L11.3729 16.8575C10.7368 18.0696 8.96695 17.9599 8.48526 16.6787L7.36448 13.6974L3.3652 17.6967C3.07193 17.99 2.59646 17.99 2.3032 17.6967C2.00994 17.4034 2.00994 16.928 2.3032 16.6347L6.30247 12.6354L3.32125 11.5147C2.03998 11.033 1.93035 9.2631 3.1424 8.62698L6.11336 7.06772C6.12078 7.06383 6.12538 7.05609 6.12525 7.04771L6.07589 3.695C6.05652 2.37934 7.5558 1.61411 8.6099 2.40164L11.3595 4.45594C11.3654 4.46031 11.373 4.46153 11.3799 4.45919L14.6275 3.36352ZM15.1533 4.78261C15.1448 4.78043 15.1314 4.77857 15.1076 4.78659L11.8601 5.88227C11.3853 6.04246 10.8621 5.95903 10.4606 5.65911L7.71099 3.60482C7.69074 3.5897 7.67736 3.58732 7.66864 3.58677C7.65679 3.58601 7.64047 3.58849 7.62312 3.59734C7.60576 3.6062 7.59418 3.61797 7.58784 3.62801C7.58318 3.6354 7.57725 3.64763 7.57762 3.67289L7.62698 7.0256C7.63544 7.60012 7.32008 8.13057 6.81131 8.39758L3.84035 9.95684C3.81615 9.96955 3.80861 9.98108 3.8048 9.98823C3.79927 9.99861 3.79457 10.0152 3.79585 10.0359C3.79713 10.0566 3.80384 10.0724 3.81062 10.0821C3.81528 10.0887 3.82418 10.0992 3.84977 10.1088L7.59339 11.5162C8.0046 11.6708 8.3291 11.9953 8.48369 12.4065L9.89109 16.1501C9.90071 16.1757 9.91122 16.1846 9.91784 16.1893C9.92747 16.1961 9.94333 16.2028 9.96403 16.2041C9.98474 16.2053 10.0013 16.2006 10.0117 16.1951C10.0188 16.1913 10.0304 16.1838 10.0431 16.1596L11.6023 13.1886C11.8693 12.6798 12.3998 12.3645 12.9743 12.3729L16.327 12.4223C16.3523 12.4227 16.3645 12.4167 16.3719 12.4121C16.3819 12.4057 16.3937 12.3941 16.4026 12.3768C16.4114 12.3594 16.4139 12.3431 16.4131 12.3313C16.4126 12.3226 16.4102 12.3092 16.3951 12.2889L14.3408 9.53929C14.0409 9.13785 13.9575 8.61464 14.1176 8.13984L15.2133 4.89233C15.2214 4.86853 15.2195 4.85509 15.2173 4.84658C15.2144 4.83507 15.207 4.82036 15.1933 4.80665C15.1796 4.79295 15.1648 4.78556 15.1533 4.78261Z" fill="black"/>
</g>
<defs>
<clipPath id="clip0_101_1084">
<rect width="20" height="20" fill="white"/>
</clipPath>
</defs>
</svg>
